<svg width="24" height="24" viewBox="0 0 24 24" fill="none" xmlns="http://www.w3.org/2000/svg">
<path opacity="0.5" fill-rule="evenodd" clip-rule="evenodd" d="M3.25 12C3.25 12.1989 3.32902 12.3897 3.46967 12.5303C3.61032 12.671 3.80109 12.75 4 12.75L13.25 12.75L13.25 11.25L4 11.25C3.586 11.25 3.25 11.586 3.25 12Z" fill="#595959"/>
<path d="M13.25 5.99995C13.2501 5.85171 13.2942 5.70683 13.3766 5.58362C13.459 5.4604 13.5761 5.36438 13.7131 5.30766C13.85 5.25095 14.0007 5.2361 14.1461 5.26499C14.2915 5.29387 14.4251 5.36519 14.53 5.46995L20.53 11.47C20.6704 11.6106 20.7493 11.8012 20.7493 12C20.7493 12.1987 20.6704 12.3893 20.53 12.53L14.53 18.53C14.4251 18.6347 14.2915 18.706 14.1461 18.7349C14.0007 18.7638 13.85 18.7489 13.7131 18.6922C13.5761 18.6355 13.459 18.5395 13.3766 18.4163C13.2942 18.2931 13.2501 18.1482 13.25 18L13.25 5.99995Z" fill="#595959"/>
</svg>
