<svg width="14" height="14" viewBox="0 0 14 14" fill="none" xmlns="http://www.w3.org/2000/svg">
<path d="M0.952133 1.1166C1.188 0.882514 1.50772 0.751031 1.84108 0.751031C2.17443 0.751031 2.49415 0.882514 2.73002 1.1166L6.87283 5.23326L11.0156 1.1166C11.1308 0.993787 11.2697 0.895282 11.424 0.826962C11.5783 0.758643 11.7449 0.721906 11.9138 0.718945C12.0827 0.715983 12.2504 0.746858 12.4071 0.809726C12.5637 0.872595 12.706 0.96617 12.8255 1.08487C12.9449 1.20357 13.0391 1.34495 13.1023 1.5006C13.1656 1.65625 13.1967 1.82296 13.1937 1.9908C13.1907 2.15864 13.1538 2.32416 13.085 2.47749C13.0162 2.63083 12.9171 2.76883 12.7935 2.88326L8.65072 6.99993L12.7935 11.1166C13.0157 11.3536 13.1367 11.667 13.1309 11.9908C13.1252 12.3146 12.9932 12.6236 12.7627 12.8526C12.5322 13.0817 12.2213 13.2128 11.8954 13.2186C11.5695 13.2243 11.2541 13.1041 11.0156 12.8833L6.87283 8.7666L2.73002 12.8833C2.61485 13.0061 2.47598 13.1046 2.32167 13.1729C2.16737 13.2412 2.00079 13.278 1.83189 13.2809C1.66298 13.2839 1.49521 13.253 1.33857 13.1901C1.18194 13.1273 1.03965 13.0337 0.920201 12.915C0.800749 12.7963 0.70658 12.6549 0.643312 12.4993C0.580044 12.3436 0.548973 12.1769 0.551954 12.0091C0.554934 11.8412 0.591904 11.6757 0.660657 11.5224C0.729411 11.369 0.828541 11.231 0.952133 11.1166L5.09494 6.99993L0.952133 2.88326C0.716562 2.64889 0.584244 2.33118 0.584244 1.99993C0.584244 1.66868 0.716562 1.35097 0.952133 1.1166Z" fill="#332C2D"/>
</svg>
