<svg width="29" height="30" viewBox="0 0 29 30" fill="none" xmlns="http://www.w3.org/2000/svg">
<path fill-rule="evenodd" clip-rule="evenodd" d="M7.06762 1.28091C12.2551 0.705842 17.4902 0.705842 22.6776 1.28091C25.7226 1.62091 28.181 4.01925 28.5376 7.08091C29.1543 12.3426 29.1543 17.6576 28.5376 22.9192C28.1793 25.9809 25.721 28.3776 22.6776 28.7192C17.4902 29.2943 12.2551 29.2943 7.06762 28.7192C4.02262 28.3776 1.56429 25.9809 1.20762 22.9192C0.592251 17.6577 0.592251 12.3424 1.20762 7.08091C1.56429 4.01925 4.02429 1.62091 7.06762 1.28091ZM22.401 3.76424C17.3974 3.20964 12.3479 3.20964 7.34429 3.76424C6.41803 3.867 5.55346 4.27904 4.89025 4.93377C4.22705 5.58851 3.80394 6.44771 3.68929 7.37258C3.09654 12.4409 3.09654 17.561 3.68929 22.6292C3.80429 23.5538 4.22755 24.4126 4.89072 25.067C5.5539 25.7214 6.41827 26.1332 7.34429 26.2359C12.306 26.7892 17.4393 26.7892 22.401 26.2359C23.3267 26.1329 24.1907 25.7209 24.8535 25.0666C25.5163 24.4122 25.9394 23.5536 26.0543 22.6292C26.6471 17.561 26.6471 12.4409 26.0543 7.37258C25.939 6.44857 25.5158 5.59032 24.853 4.93628C24.1902 4.28224 23.3264 3.87054 22.401 3.76758V3.76424Z" fill="#332C2D"/>
<path d="M8.95213 9.1166C9.188 8.88251 9.50772 8.75103 9.84108 8.75103C10.1744 8.75103 10.4942 8.88251 10.73 9.1166L14.8728 13.2333L19.0156 9.1166C19.1308 8.99379 19.2697 8.89528 19.424 8.82696C19.5783 8.75864 19.7449 8.72191 19.9138 8.71894C20.0827 8.71598 20.2504 8.74686 20.4071 8.80973C20.5637 8.87259 20.706 8.96617 20.8255 9.08487C20.9449 9.20357 21.0391 9.34495 21.1023 9.5006C21.1656 9.65625 21.1967 9.82296 21.1937 9.9908C21.1907 10.1586 21.1538 10.3242 21.085 10.4775C21.0162 10.6308 20.9171 10.7688 20.7935 10.8833L16.6507 14.9999L20.7935 19.1166C21.0157 19.3536 21.1367 19.667 21.1309 19.9908C21.1252 20.3146 20.9932 20.6236 20.7627 20.8526C20.5322 21.0817 20.2213 21.2128 19.8954 21.2186C19.5695 21.2243 19.2541 21.1041 19.0156 20.8833L14.8728 16.7666L10.73 20.8833C10.6149 21.0061 10.476 21.1046 10.3217 21.1729C10.1674 21.2412 10.0008 21.278 9.83189 21.2809C9.66298 21.2839 9.49521 21.253 9.33857 21.1901C9.18194 21.1273 9.03965 21.0337 8.9202 20.915C8.80075 20.7963 8.70658 20.6549 8.64331 20.4993C8.58004 20.3436 8.54897 20.1769 8.55195 20.0091C8.55493 19.8412 8.5919 19.6757 8.66066 19.5224C8.72941 19.369 8.82854 19.231 8.95213 19.1166L13.0949 14.9999L8.95213 10.8833C8.71656 10.6489 8.58424 10.3312 8.58424 9.99993C8.58424 9.66868 8.71656 9.35097 8.95213 9.1166Z" fill="#332C2D"/>
</svg>
