<svg width="28" height="28" viewBox="0 0 28 28" fill="none" xmlns="http://www.w3.org/2000/svg">
<g id="cm">
<g clip-path="url(#clip0_579_17468)">
<path id="Vector" d="M0 0H9.33516V28H0V0Z" fill="#007A5E"/>
<path id="Vector_2" d="M9.33496 0H18.6646V28H9.33496V0Z" fill="#CE1126"/>
<path id="Vector_3" d="M18.665 0H28.0002V28H18.665V0Z" fill="#FCD116"/>
<g id="Group">
<g id="b">
<path id="a" d="M14.0004 11.5111L13.2227 13.8756L14.4049 14.28L14.0004 11.5111Z" fill="#FCD116"/>
<path id="a_2" d="M14.0005 11.5111L14.7783 13.8756L13.5961 14.28L14.0005 11.5111Z" fill="#FCD116"/>
</g>
<g id="b_2">
<path id="a_3" d="M16.3673 13.2309L13.8782 13.2218L13.8589 14.4711L16.3673 13.2309Z" fill="#FCD116"/>
<path id="a_4" d="M16.3671 13.2309L14.3587 14.7012L13.6087 13.7019L16.3671 13.2309Z" fill="#FCD116"/>
</g>
<g id="b_3">
<path id="a_5" d="M15.4626 16.0136L14.702 13.6435L13.5078 14.0112L15.4626 16.0136Z" fill="#FCD116"/>
<path id="a_6" d="M15.4622 16.0135L13.4432 14.5578L14.1619 13.5357L15.4622 16.0135Z" fill="#FCD116"/>
</g>
<g id="b_4">
<path id="a_7" d="M12.5368 16.0135L14.5558 14.5578L13.8371 13.5357L12.5368 16.0135Z" fill="#FCD116"/>
<path id="a_8" d="M12.5365 16.0136L13.297 13.6435L14.4912 14.0112L12.5365 16.0136Z" fill="#FCD116"/>
</g>
<g id="b_5">
<path id="a_9" d="M11.6329 13.2309L13.6413 14.7012L14.3913 13.7019L11.6329 13.2309Z" fill="#FCD116"/>
<path id="a_10" d="M11.6327 13.2309L14.1218 13.2218L14.1411 14.4711L11.6327 13.2309Z" fill="#FCD116"/>
</g>
</g>
</g>
</g>
<defs>
<clipPath id="clip0_579_17468">
<rect width="28" height="28" rx="14" fill="white"/>
</clipPath>
</defs>
</svg>
