<svg width="24" height="25" viewBox="0 0 24 25" fill="none" xmlns="http://www.w3.org/2000/svg">
<g clip-path="url(#clip0_92_4666)">
<path fill-rule="evenodd" clip-rule="evenodd" d="M12.707 16.207C12.5195 16.3944 12.2652 16.4998 12 16.4998C11.7348 16.4998 11.4805 16.3944 11.293 16.207L5.636 10.55C5.54049 10.4577 5.46431 10.3474 5.4119 10.2254C5.35949 10.1034 5.3319 9.97216 5.33075 9.83938C5.3296 9.7066 5.3549 9.57492 5.40518 9.45202C5.45546 9.32913 5.52971 9.21747 5.6236 9.12358C5.7175 9.02969 5.82915 8.95544 5.95205 8.90515C6.07494 8.85487 6.20662 8.82957 6.3394 8.83073C6.47218 8.83188 6.6034 8.85947 6.7254 8.91188C6.84741 8.96428 6.95775 9.04047 7.05 9.13598L12 14.086L16.95 9.13598C17.1386 8.95382 17.3912 8.85302 17.6534 8.8553C17.9156 8.85758 18.1664 8.96275 18.3518 9.14816C18.5372 9.33357 18.6424 9.58438 18.6447 9.84658C18.647 10.1088 18.5462 10.3614 18.364 10.55L12.707 16.207Z" fill="#464646"/>
</g>
<defs>
<clipPath id="clip0_92_4666">
<rect width="24" height="24" fill="white" transform="translate(0 0.5)"/>
</clipPath>
</defs>
</svg>
