<svg width="1024" height="200" viewBox="0 0 1024 200" fill="none" xmlns="http://www.w3.org/2000/svg">
<g clip-path="url(#clip0_701_352)">
<rect width="1026" height="200" transform="translate(-1)" fill="#DFE1E5"/>
<rect x="142" y="10" width="151" height="179" rx="16" fill="#464646"/>
<rect x="643" y="10" width="151" height="179" rx="16" fill="#464646"/>
<rect x="-25" y="-12" width="151" height="144" rx="16" fill="#464646"/>
<rect x="-25" y="148" width="151" height="144" rx="16" fill="#464646"/>
<rect x="476" y="-12" width="151" height="144" rx="16" fill="#464646"/>
<rect x="476" y="148" width="151" height="144" rx="16" fill="#464646"/>
<rect x="977" y="-12" width="151" height="144" rx="16" fill="#464646"/>
<rect x="977" y="148" width="151" height="144" rx="16" fill="#464646"/>
<rect width="151" height="144" rx="16" transform="matrix(1 0 0 -1 309 212)" fill="#464646"/>
<rect width="151" height="144" rx="16" transform="matrix(1 0 0 -1 309 52)" fill="#464646"/>
<rect width="151" height="144" rx="16" transform="matrix(1 0 0 -1 810 212)" fill="#464646"/>
<rect width="151" height="144" rx="16" transform="matrix(1 0 0 -1 810 52)" fill="#464646"/>
<rect opacity="0.7" x="-208" width="1440" height="200" fill="black"/>
</g>
<defs>
<clipPath id="clip0_701_352">
<rect width="1026" height="200" fill="white" transform="translate(-1)"/>
</clipPath>
</defs>
</svg>
