<svg width="155" height="44" viewBox="0 0 155 44" fill="none" xmlns="http://www.w3.org/2000/svg">
<circle cx="22" cy="22" r="22" fill="#434445"/>
<circle cx="50" cy="22" r="22" fill="#434445"/>
<circle cx="78" cy="22" r="22" fill="#434445"/>
<rect x="84" width="71" height="44" rx="22" fill="#D9D9D9"/>
<path d="M100.848 23.44V21.84H107.904V23.44H100.848ZM103.568 18.944H105.2V26.32H103.568V18.944ZM112.702 28.16C111.923 28.16 111.23 28.0267 110.622 27.76C110.014 27.4827 109.502 27.0827 109.086 26.56L110.334 25.312C110.558 25.6533 110.873 25.9253 111.278 26.128C111.694 26.3307 112.158 26.432 112.67 26.432C113.139 26.432 113.55 26.3467 113.902 26.176C114.254 26.0053 114.531 25.76 114.734 25.44C114.937 25.12 115.038 24.7413 115.038 24.304C115.038 23.8453 114.937 23.4667 114.734 23.168C114.542 22.8587 114.281 22.6293 113.95 22.48C113.63 22.32 113.283 22.24 112.91 22.24C112.483 22.24 112.099 22.288 111.758 22.384C111.427 22.48 111.102 22.6507 110.782 22.896L110.83 21.744C111.001 21.52 111.198 21.3387 111.422 21.2C111.646 21.0507 111.907 20.9387 112.206 20.864C112.505 20.7893 112.857 20.752 113.262 20.752C114.051 20.752 114.713 20.9173 115.246 21.248C115.79 21.5787 116.201 22.0213 116.478 22.576C116.755 23.12 116.894 23.728 116.894 24.4C116.894 25.1253 116.713 25.7707 116.35 26.336C115.998 26.9013 115.507 27.3493 114.878 27.68C114.249 28 113.523 28.16 112.702 28.16ZM110.782 22.896L109.774 21.888L110.27 16.8H111.95L111.374 22.096L110.782 22.896ZM110.59 18.448L110.27 16.8H116.27V18.448H110.59ZM119.367 28.16C119.026 28.16 118.743 28.048 118.519 27.824C118.306 27.5893 118.199 27.3067 118.199 26.976C118.199 26.6347 118.306 26.352 118.519 26.128C118.743 25.904 119.026 25.792 119.367 25.792C119.708 25.792 119.986 25.904 120.199 26.128C120.423 26.352 120.535 26.6347 120.535 26.976C120.535 27.3067 120.423 27.5893 120.199 27.824C119.986 28.048 119.708 28.16 119.367 28.16ZM125.64 28.16C124.861 28.16 124.168 28.0267 123.56 27.76C122.952 27.4827 122.44 27.0827 122.024 26.56L123.272 25.312C123.496 25.6533 123.81 25.9253 124.216 26.128C124.632 26.3307 125.096 26.432 125.608 26.432C126.077 26.432 126.488 26.3467 126.84 26.176C127.192 26.0053 127.469 25.76 127.672 25.44C127.874 25.12 127.976 24.7413 127.976 24.304C127.976 23.8453 127.874 23.4667 127.672 23.168C127.48 22.8587 127.218 22.6293 126.888 22.48C126.568 22.32 126.221 22.24 125.848 22.24C125.421 22.24 125.037 22.288 124.696 22.384C124.365 22.48 124.04 22.6507 123.72 22.896L123.768 21.744C123.938 21.52 124.136 21.3387 124.36 21.2C124.584 21.0507 124.845 20.9387 125.144 20.864C125.442 20.7893 125.794 20.752 126.2 20.752C126.989 20.752 127.65 20.9173 128.184 21.248C128.728 21.5787 129.138 22.0213 129.416 22.576C129.693 23.12 129.832 23.728 129.832 24.4C129.832 25.1253 129.65 25.7707 129.288 26.336C128.936 26.9013 128.445 27.3493 127.816 27.68C127.186 28 126.461 28.16 125.64 28.16ZM123.72 22.896L122.712 21.888L123.208 16.8H124.888L124.312 22.096L123.72 22.896ZM123.528 18.448L123.208 16.8H129.208V18.448H123.528ZM136.262 28L133.014 24.08L136.246 20.32H138.342L134.63 24.544L134.71 23.536L138.502 28H136.262ZM131.382 28V16.48H133.142V28H131.382Z" fill="black"/>
</svg>
